<?xml version="1.0" encoding="UTF-8" standalone="no"?><!DOCTYPE svg PUBLIC "-//W3C//DTD SVG 1.1//EN" "http://www.w3.org/Graphics/SVG/1.1/DTD/svg11.dtd"><svg width="100%" height="100%" viewBox="0 0 104 127" version="1.1" xmlns="http://www.w3.org/2000/svg" xmlns:xlink="http://www.w3.org/1999/xlink" xml:space="preserve" xmlns:serif="http://www.serif.com/" style="fill-rule:evenodd;clip-rule:evenodd;stroke-linejoin:round;stroke-miterlimit:2;"><g id="Iconly_Bulk_Scan"><g id="Scan"><path id="Combined_Shape" d="M60.225,35.867c0.028,-0.838 0.708,-1.52 1.546,-1.55l7.162,-0c7.148,0.011 13.023,5.897 13.021,13.045l0,31.75c0,0.016 0,0.031 0,0.046c0,7.127 -5.864,12.992 -12.991,12.992c-0.01,0 -0.02,0 -0.03,-0l-7.158,-0c-0.844,-0.035 -1.525,-0.727 -1.546,-1.571l-0.004,-54.712Zm10.121,71.366l10.671,0c7.679,-0.086 13.933,-6.462 13.87,-14.141l0,-9.167c-0.022,-2.374 1.91,-4.348 4.284,-4.375c2.365,0.02 4.3,1.972 4.3,4.337c0,0.016 -0,0.031 -0,0.046l-0,9.167c0.103,12.43 -10.024,22.751 -22.454,22.883l-10.671,0c-2.4,0 -4.375,-1.975 -4.375,-4.375c-0,-2.4 1.975,-4.375 4.375,-4.375Zm0.004,-96.75l10.687,0c12.412,0.135 22.526,10.434 22.434,22.846l-0,9.371c0.018,2.376 -1.92,4.348 -4.296,4.371c-2.359,-0.023 -4.288,-1.97 -4.288,-4.329c0,-0.014 0,-0.028 0,-0.042l0,-9.367c0.053,-7.66 -6.189,-14.016 -13.85,-14.1l-10.687,0c-2.377,-0.025 -4.314,-1.998 -4.296,-4.375c-0.021,-2.378 1.918,-4.352 4.296,-4.375Z" style="fill:#fff;fill-opacity:0.4;fill-rule:nonzero;"/><path id="Fill_7" d="M51.496,122.083l-0,-117.704c0.021,-2.379 -1.917,-4.354 -4.296,-4.379c-2.376,0.027 -4.309,2.003 -4.283,4.379l-0,6.1l-20.484,0c-12.411,0.141 -22.521,10.443 -22.429,22.854l0,9.363c0,2.354 1.937,4.291 4.292,4.291c2.354,0 4.291,-1.937 4.291,-4.291l0,-9.363c-0.052,-7.659 6.188,-14.013 13.846,-14.1l20.484,0l-0,15.079l-5.7,0c-7.148,0.01 -13.025,5.894 -13.025,13.042l-0,31.754c-0.005,7.152 5.873,13.041 13.025,13.05l5.7,0l-0,15.079l-20.463,0c-7.689,-0.084 -13.949,-6.477 -13.871,-14.166l0,-9.167c0,-2.354 -1.937,-4.292 -4.291,-4.292c-2.355,0 -4.292,1.938 -4.292,4.292l-0,9.167c-0.119,12.444 10.015,22.785 22.458,22.916l20.459,0l-0,6.096c-0,0.016 -0.001,0.031 -0.001,0.046c0,2.358 1.926,4.305 4.284,4.329c2.378,-0.022 4.317,-1.997 4.296,-4.375" style="fill:#fff;fill-rule:nonzero;"/></g></g></svg>