<?xml version="1.0" encoding="UTF-8" standalone="no"?><!DOCTYPE svg PUBLIC "-//W3C//DTD SVG 1.1//EN" "http://www.w3.org/Graphics/SVG/1.1/DTD/svg11.dtd"><svg width="100%" height="100%" viewBox="0 0 127 104" version="1.1" xmlns="http://www.w3.org/2000/svg" xmlns:xlink="http://www.w3.org/1999/xlink" xml:space="preserve" xmlns:serif="http://www.serif.com/" style="fill-rule:evenodd;clip-rule:evenodd;stroke-linejoin:round;stroke-miterlimit:2;"><path id="Combined_Shape" d="M35.867,43.246c-0.838,-0.028 -1.52,-0.708 -1.55,-1.546l-0,-7.163c0.011,-7.148 5.897,-13.023 13.046,-13.02l31.75,-0c0.015,-0 0.03,-0 0.045,-0c7.127,-0 12.992,5.864 12.992,12.991c0,0.01 0,0.02 -0,0.029l0,7.159c-0.035,0.844 -0.727,1.525 -1.571,1.546l-54.712,0.004Zm71.366,-10.121l0,-10.671c-0.086,-7.679 -6.462,-13.933 -14.141,-13.871l-9.167,0c-2.374,0.023 -4.348,-1.909 -4.375,-4.283c0.02,-2.365 1.972,-4.3 4.337,-4.3c0.016,-0 0.031,-0 0.046,-0l9.167,-0c12.43,-0.103 22.751,10.024 22.883,22.454l0,10.671c0,2.4 -1.975,4.375 -4.375,4.375c-2.4,-0 -4.375,-1.975 -4.375,-4.375Zm-96.75,-0.004l0,-10.688c0.135,-12.411 10.434,-22.525 22.846,-22.433l9.371,-0c2.376,-0.018 4.348,1.919 4.371,4.296c-0.023,2.359 -1.97,4.288 -4.329,4.288c-0.014,-0 -0.028,-0.001 -0.042,-0.001l-9.367,0c-7.66,-0.053 -14.016,6.19 -14.1,13.85l0,10.688c-0.025,2.377 -1.998,4.314 -4.375,4.296c-2.378,0.02 -4.352,-1.918 -4.375,-4.296Z" style="fill-opacity:0.4;fill-rule:nonzero;"/><path id="Fill_7" d="M122.083,51.975l-117.704,0c-2.379,-0.021 -4.354,1.917 -4.379,4.296c0.027,2.375 2.003,4.308 4.379,4.283l6.1,0l0,20.483c0.141,12.412 10.443,22.522 22.854,22.43l9.363,-0c2.354,-0 4.292,-1.938 4.292,-4.292c-0,-2.354 -1.938,-4.292 -4.292,-4.292l-9.363,0c-7.659,0.053 -14.013,-6.187 -14.1,-13.846l0,-20.483l15.08,0l-0,5.7c0.009,7.148 5.893,13.025 13.041,13.025l31.754,0c7.152,0.005 13.041,-5.874 13.05,-13.025l0,-5.7l15.08,0l-0,20.463c-0.085,7.689 -6.478,13.949 -14.167,13.871l-9.167,-0c-2.354,-0 -4.291,1.937 -4.291,4.291c-0,2.355 1.937,4.292 4.291,4.292l9.167,-0c12.444,0.119 22.785,-10.015 22.917,-22.458l-0,-20.459l6.095,0c0.016,0 0.031,0 0.046,0c2.358,0 4.305,-1.926 4.329,-4.283c-0.022,-2.378 -1.997,-4.317 -4.375,-4.296" style="fill-rule:nonzero;"/></svg>