<svg xmlns="http://www.w3.org/2000/svg" width="32" height="32"><path fill="#ee6276" d="m19.129 21.716 1.41 2.443 2.265 3.928 1.22 2.115a1.59 1.59 0 0 0 2.178.583 1.592 1.592 0 0 0 .583-2.179L21.89 20.12"/><path fill="#f9b536" d="m16.971 19.352 1.79 3.103 3.952-2.284-1.802-3.124"/><path fill="#f0f4f7" d="M15.058 4.077a6.731 6.731 0 0 1 5.513 3.361 6.74 6.74 0 0 1-2.465 9.204 6.73 6.73 0 0 1-9.197-2.467 6.74 6.74 0 0 1 2.465-9.203 6.728 6.728 0 0 1 3.684-.895z"/><path fill="#0c5286" d="M15.155 2.007a8.803 8.81 1.429 0 0-4.816 1.17 8.803 8.81 1.429 0 0-3.223 12.035 8.803 8.81 1.429 0 0 12.026 3.224 8.803 8.81 1.429 0 0 3.222-12.035 8.803 8.81 1.429 0 0-7.209-4.394zm-.097 2.07a6.732 6.738 1.432 0 1 5.513 3.361 6.732 6.738 1.432 0 1-2.465 9.204 6.732 6.738 1.432 0 1-9.197-2.467 6.732 6.738 1.432 0 1 2.465-9.203 6.732 6.738 1.432 0 1 3.684-.895z"/></svg>